<svg width="636" height="1183" viewBox="0 0 636 1183" fill="none" xmlns="http://www.w3.org/2000/svg">
<path d="M433.729 765.658C406.31 781.956 375.062 790.698 343.167 790.992C311.271 791.287 279.867 783.124 252.152 767.335C224.437 751.546 201.401 728.694 185.389 701.107C169.378 673.52 160.962 642.183 161 610.286C161.038 578.389 169.528 547.071 185.605 519.522C201.682 491.974 224.772 469.177 252.524 453.454C280.277 437.73 311.7 429.642 343.595 430.012C375.49 430.382 406.717 439.198 434.097 455.561" stroke="#006ACF" stroke-width="67" stroke-linecap="round"/>
<path d="M374.613 698.109C360.805 702.237 346.208 703.095 331.999 700.613C317.791 698.131 304.386 692.381 292.857 683.842C281.33 675.304 272.005 664.221 265.612 651.497C259.22 638.774 255.932 624.756 256.001 610.565C256.07 596.374 259.493 582.387 266.008 569.724C272.524 557.061 281.957 546.066 293.567 537.638C305.178 529.208 318.639 523.586 332.871 521.239C347.103 518.892 361.692 519.889 375.458 524.148" stroke="#359CED" stroke-width="60" stroke-linecap="round"/>
</svg>
