<svg width="1003" height="1183" viewBox="0 0 1003 1183" fill="none" xmlns="http://www.w3.org/2000/svg">
<rect x="225" y="335" width="596" height="560" rx="80" fill="black"/>
<path d="M643.729 769.658C616.31 785.956 585.062 794.698 553.167 794.992C521.271 795.287 489.867 787.124 462.152 771.335C434.437 755.546 411.401 732.694 395.389 705.107C379.378 677.52 370.962 646.183 371 614.286C371.038 582.389 379.528 551.071 395.605 523.522C411.682 495.974 434.772 473.177 462.524 457.454C490.277 441.73 521.7 433.642 553.595 434.012C585.49 434.382 616.717 443.198 644.097 459.561" stroke="#006ACF" stroke-width="67" stroke-linecap="round"/>
<path d="M578.613 702.109C564.805 706.237 550.208 707.095 535.999 704.613C521.791 702.131 508.386 696.381 496.857 687.842C485.33 679.304 476.005 668.221 469.612 655.497C463.22 642.774 459.932 628.756 460.001 614.565C460.07 600.374 463.493 586.387 470.008 573.724C476.524 561.061 485.957 550.066 497.567 541.638C509.178 533.208 522.639 527.586 536.871 525.239C551.103 522.892 565.692 523.889 579.458 528.148" stroke="#359CED" stroke-width="60" stroke-linecap="round"/>
</svg>
